<svg width="16" height="16" viewBox="0 0 16 16" fill="none" xmlns="http://www.w3.org/2000/svg">
<path d="M13.5447 2.77034C12.5249 2.30242 11.4313 1.95768 10.2879 1.76023C10.2671 1.75642 10.2463 1.76594 10.2356 1.78499C10.0949 2.03513 9.93915 2.36146 9.83006 2.61796C8.60027 2.43385 7.37679 2.43385 6.17221 2.61796C6.0631 2.35576 5.90166 2.03513 5.76038 1.78499C5.74966 1.76658 5.72886 1.75705 5.70803 1.76023C4.56527 1.95705 3.47171 2.30179 2.45129 2.77034C2.44246 2.77415 2.43488 2.7805 2.42986 2.78875C0.355594 5.88766 -0.212633 8.9104 0.0661201 11.8957C0.0673814 11.9103 0.0755799 11.9242 0.086932 11.9331C1.45547 12.9381 2.78114 13.5483 4.08219 13.9527C4.10301 13.9591 4.12507 13.9514 4.13832 13.9343C4.44608 13.514 4.72043 13.0708 4.95565 12.6048C4.96953 12.5775 4.95628 12.5451 4.92791 12.5344C4.49275 12.3693 4.0784 12.168 3.67982 11.9395C3.64829 11.9211 3.64577 11.876 3.67477 11.8544C3.75865 11.7915 3.84255 11.7261 3.92264 11.6601C3.93713 11.648 3.95732 11.6455 3.97435 11.6531C6.59286 12.8486 9.4277 12.8486 12.0153 11.6531C12.0323 11.6449 12.0525 11.6474 12.0677 11.6595C12.1478 11.7255 12.2316 11.7915 12.3161 11.8544C12.3451 11.876 12.3433 11.9211 12.3117 11.9395C11.9131 12.1725 11.4988 12.3693 11.063 12.5337C11.0346 12.5445 11.022 12.5775 11.0359 12.6048C11.2762 13.0702 11.5505 13.5134 11.8526 13.9337C11.8652 13.9514 11.8879 13.9591 11.9087 13.9527C13.2161 13.5483 14.5417 12.9381 15.9103 11.9331C15.9223 11.9242 15.9298 11.9109 15.9311 11.8963C16.2647 8.445 15.3723 5.44705 13.5655 2.78938C13.5611 2.7805 13.5535 2.77415 13.5447 2.77034ZM5.34668 10.0779C4.55833 10.0779 3.90876 9.35418 3.90876 8.46533C3.90876 7.57647 4.54574 6.85271 5.34668 6.85271C6.15392 6.85271 6.79721 7.58283 6.78459 8.46533C6.78459 9.35418 6.14761 10.0779 5.34668 10.0779ZM10.6632 10.0779C9.87484 10.0779 9.22526 9.35418 9.22526 8.46533C9.22526 7.57647 9.86222 6.85271 10.6632 6.85271C11.4704 6.85271 12.1137 7.58283 12.1011 8.46533C12.1011 9.35418 11.4704 10.0779 10.6632 10.0779Z" fill="white"/>
</svg>
