<svg width="16" height="16" viewBox="0 0 16 16" fill="none" xmlns="http://www.w3.org/2000/svg">
<g clip-path="url(#clip0_1_467)">
<path fill-rule="evenodd" clip-rule="evenodd" d="M8.00022 0.333374C6.10104 0.334359 4.26413 1.00701 2.81795 2.23106C1.37178 3.4551 0.410643 5.15071 0.106404 7.01471C-0.197835 8.8787 0.174658 10.7895 1.15729 12.4055C2.13992 14.0215 3.6686 15.2372 5.46999 15.8354C5.86741 15.9091 6.01711 15.6628 6.01711 15.4534C6.01711 15.2439 6.00915 14.6367 6.00651 13.9729C3.78097 14.4536 3.3107 13.0337 3.3107 13.0337C2.94772 12.1117 2.42313 11.8693 2.42313 11.8693C1.69718 11.3767 2.47745 11.3859 2.47745 11.3859C3.28156 11.4425 3.70414 12.2065 3.70414 12.2065C4.41685 13.4223 5.57597 13.0706 6.03168 12.8651C6.10321 12.3501 6.3112 11.9997 6.54037 11.8008C4.76259 11.6006 2.89473 10.9183 2.89473 7.87032C2.88371 7.07985 3.17872 6.31541 3.71871 5.73516C3.63658 5.53495 3.36236 4.7262 3.79687 3.62766C3.79687 3.62766 4.46851 3.41428 5.99724 4.443C7.30849 4.08646 8.69195 4.08646 10.0032 4.443C11.5306 3.41428 12.2009 3.62766 12.2009 3.62766C12.6367 4.72356 12.3625 5.53231 12.2804 5.73516C12.8221 6.3155 13.1177 7.08127 13.1057 7.87296C13.1057 10.9275 11.2339 11.6006 9.45344 11.7969C9.73958 12.0445 9.99525 12.5279 9.99525 13.2708C9.99525 14.3351 9.98598 15.1913 9.98598 15.4534C9.98598 15.6654 10.1304 15.9131 10.5357 15.8354C12.3373 15.2371 13.8662 14.0212 14.8488 12.4049C15.8314 10.7887 16.2037 8.87757 15.8991 7.01341C15.5945 5.14924 14.6329 3.45361 13.1863 2.22978C11.7396 1.00594 9.90227 0.333735 8.00286 0.333374H8.00022Z" fill="white"/>
<path d="M3.02966 11.7547C3.01244 11.7942 2.94886 11.806 2.89719 11.7784C2.84553 11.7507 2.80711 11.6993 2.82566 11.6585C2.84421 11.6177 2.90647 11.6071 2.95813 11.6348C3.0098 11.6625 3.04954 11.7152 3.02966 11.7547Z" fill="white"/>
<path d="M3.35423 12.1143C3.3268 12.128 3.29541 12.1319 3.26545 12.1252C3.23548 12.1184 3.2088 12.1015 3.18997 12.0774C3.13831 12.0221 3.1277 11.9457 3.16744 11.9115C3.20719 11.8772 3.27873 11.893 3.33039 11.9483C3.38205 12.0037 3.39398 12.0801 3.35423 12.1143Z" fill="white"/>
<path d="M3.66946 12.5714C3.62044 12.6056 3.53698 12.5714 3.49061 12.5029C3.47779 12.4906 3.4676 12.4758 3.46063 12.4595C3.45367 12.4433 3.45007 12.4257 3.45007 12.408C3.45007 12.3903 3.45367 12.3728 3.46063 12.3565C3.4676 12.3402 3.47779 12.3255 3.49061 12.3132C3.53963 12.2803 3.62309 12.3132 3.66946 12.3804C3.71582 12.4475 3.71715 12.5371 3.66946 12.5714Z" fill="white"/>
<path d="M4.09737 13.0139C4.05365 13.0626 3.9649 13.0494 3.89204 12.9836C3.81918 12.9177 3.80195 12.8281 3.84567 12.7807C3.88939 12.7333 3.97814 12.7465 4.05365 12.811C4.12916 12.8756 4.14373 12.9665 4.09737 13.0139Z" fill="white"/>
<path d="M4.69741 13.272C4.67754 13.3339 4.58746 13.3616 4.49737 13.3352C4.40729 13.3089 4.34768 13.2351 4.3649 13.1719C4.38212 13.1087 4.47353 13.0797 4.56494 13.1087C4.65634 13.1377 4.71463 13.2075 4.69741 13.272Z" fill="white"/>
<path d="M5.35189 13.3169C5.35189 13.3814 5.27771 13.4367 5.18233 13.438C5.08695 13.4394 5.00879 13.3867 5.00879 13.3221C5.00879 13.2576 5.08297 13.2023 5.17835 13.201C5.27373 13.1996 5.35189 13.251 5.35189 13.3169Z" fill="white"/>
<path d="M5.9613 13.2154C5.97323 13.28 5.90699 13.3472 5.81161 13.363C5.71623 13.3788 5.63277 13.3406 5.62085 13.2774C5.60893 13.2141 5.67781 13.1456 5.77054 13.1285C5.86327 13.1114 5.94938 13.1509 5.9613 13.2154Z" fill="white"/>
</g>
<defs>
<clipPath id="clip0_1_467">
<rect width="16" height="16" fill="white"/>
</clipPath>
</defs>
</svg>
